<svg width="122" height="32" viewBox="0 0 122 32" fill="none" xmlns="http://www.w3.org/2000/svg">
<path d="M14.896 12.224C16.2187 12.608 17.2427 13.28 17.968 14.24C18.6933 15.2 19.056 16.3733 19.056 17.76C19.056 19.68 18.3413 21.2053 16.912 22.336C15.4827 23.4453 13.5413 24 11.088 24H0.272V1.216H10.768C13.136 1.216 15.0027 1.74933 16.368 2.816C17.7547 3.86133 18.448 5.30133 18.448 7.136C18.448 8.33067 18.128 9.376 17.488 10.272C16.8693 11.168 16.0053 11.8187 14.896 12.224ZM5.136 10.496H9.936C11.216 10.496 12.1653 10.2827 12.784 9.856C13.424 9.408 13.744 8.72533 13.744 7.808C13.744 6.86933 13.424 6.176 12.784 5.728C12.1653 5.28 11.216 5.056 9.936 5.056H5.136V10.496ZM10.512 20.16C11.856 20.16 12.8267 19.936 13.424 19.488C14.0427 19.0187 14.352 18.2827 14.352 17.28C14.352 16.256 14.0427 15.5093 13.424 15.04C12.8267 14.5707 11.856 14.336 10.512 14.336H5.136V20.16H10.512ZM22.2333 7.776H27.0653V24H22.2333V7.776ZM27.2253 0.159998V4.704H22.0733V0.159998H27.2253ZM41.0305 7.36C44.8705 7.36 46.7905 9.632 46.7905 14.176V24H41.9585V14.4C41.9585 13.2693 41.7452 12.448 41.3185 11.936C40.9132 11.4027 40.2625 11.136 39.3665 11.136C38.2998 11.136 37.4465 11.4773 36.8065 12.16C36.1665 12.8427 35.8465 13.76 35.8465 14.912V24H31.0145V12.416C31.0145 10.688 30.9292 9.14133 30.7585 7.776H35.3025L35.6225 10.336C36.1985 9.376 36.9452 8.64 37.8625 8.128C38.8012 7.616 39.8572 7.36 41.0305 7.36ZM67.0555 7.776V23.264C67.0555 25.8453 66.3088 27.808 64.8155 29.152C63.3222 30.496 61.1462 31.168 58.2875 31.168C55.7062 31.168 53.4662 30.6667 51.5675 29.664L52.3035 26.08C54.2662 27.0613 56.2075 27.552 58.1275 27.552C59.5142 27.552 60.5488 27.2213 61.2315 26.56C61.9142 25.92 62.2555 24.9387 62.2555 23.616V20.8C61.7435 21.5893 61.0288 22.2507 60.1115 22.784C59.1942 23.296 58.1808 23.552 57.0715 23.552C55.6635 23.552 54.4155 23.2213 53.3275 22.56C52.2395 21.8773 51.3862 20.928 50.7675 19.712C50.1488 18.4747 49.8395 17.056 49.8395 15.456C49.8395 13.856 50.1488 12.448 50.7675 11.232C51.3862 9.99467 52.2395 9.04533 53.3275 8.384C54.4155 7.70133 55.6635 7.36 57.0715 7.36C58.2022 7.36 59.2262 7.60533 60.1435 8.096C61.0608 8.58667 61.7648 9.248 62.2555 10.08V7.776H67.0555ZM58.4795 19.872C59.6528 19.872 60.5702 19.488 61.2315 18.72C61.9142 17.9307 62.2555 16.8427 62.2555 15.456C62.2555 14.0907 61.9248 13.024 61.2635 12.256C60.6022 11.4667 59.6742 11.072 58.4795 11.072C57.2848 11.072 56.3462 11.4667 55.6635 12.256C54.9808 13.024 54.6395 14.0907 54.6395 15.456C54.6395 16.8213 54.9808 17.8987 55.6635 18.688C56.3462 19.4773 57.2848 19.872 58.4795 19.872ZM86.4088 7.776V24H81.7048V21.632C81.1928 22.4853 80.5208 23.136 79.6888 23.584C78.8568 24.032 77.9181 24.256 76.8728 24.256C74.8461 24.256 73.3314 23.6907 72.3288 22.56C71.3261 21.4293 70.8248 19.7227 70.8248 17.44V7.776H75.6568V17.536C75.6568 19.4987 76.4994 20.48 78.1848 20.48C79.1874 20.48 79.9981 20.1387 80.6168 19.456C81.2354 18.7733 81.5448 17.8773 81.5448 16.768V7.776H86.4088ZM90.327 0.447998H95.159V24H90.327V0.447998ZM113.668 16.288H102.98C103.066 17.8027 103.46 18.912 104.164 19.616C104.868 20.2987 105.914 20.64 107.3 20.64C108.132 20.64 108.964 20.5013 109.796 20.224C110.628 19.9467 111.396 19.5413 112.1 19.008L113.38 22.272C112.612 22.8907 111.652 23.3813 110.5 23.744C109.37 24.0853 108.228 24.256 107.076 24.256C104.346 24.256 102.202 23.5093 100.644 22.016C99.0869 20.5013 98.3083 18.4427 98.3083 15.84C98.3083 14.1973 98.6389 12.736 99.3003 11.456C99.9829 10.1547 100.932 9.152 102.148 8.448C103.364 7.72267 104.74 7.36 106.276 7.36C108.559 7.36 110.362 8.10667 111.684 9.6C113.007 11.072 113.668 13.0667 113.668 15.584V16.288ZM106.404 10.752C105.487 10.752 104.74 11.0187 104.164 11.552C103.61 12.0853 103.247 12.864 103.076 13.888H109.508C109.252 11.7973 108.218 10.752 106.404 10.752Z" fill="#22405F"/>
<path d="M121.534 18.848V24H116.318V18.848H121.534Z" fill="#0FB582"/>
</svg>
