<svg width="88" height="24" viewBox="0 0 88 24" fill="none" xmlns="http://www.w3.org/2000/svg">
<path d="M11.36 9.168C12.352 9.456 13.112 9.96 13.64 10.68C14.184 11.4 14.456 12.288 14.456 13.344C14.456 14.8 13.936 15.944 12.896 16.776C11.872 17.592 10.44 18 8.6 18H0.848V0.912H8.36C10.12 0.912 11.504 1.312 12.512 2.112C13.52 2.896 14.024 3.984 14.024 5.376C14.024 6.272 13.784 7.056 13.304 7.728C12.84 8.384 12.192 8.864 11.36 9.168ZM3.872 8.112H7.856C10 8.112 11.072 7.312 11.072 5.712C11.072 4.912 10.808 4.312 10.28 3.912C9.752 3.512 8.944 3.312 7.856 3.312H3.872V8.112ZM8.264 15.6C9.384 15.6 10.2 15.4 10.712 15C11.24 14.6 11.504 13.968 11.504 13.104C11.504 12.224 11.24 11.576 10.712 11.16C10.2 10.744 9.384 10.536 8.264 10.536H3.872V15.6H8.264ZM16.9623 5.88H19.9383V18H16.9623V5.88ZM20.1063 0.383999V3.336H16.7703V0.383999H20.1063ZM29.9161 5.568C32.8121 5.568 34.2601 7.232 34.2601 10.56V18H31.2601V10.704C31.2601 9.744 31.0761 9.048 30.7081 8.616C30.3401 8.168 29.7721 7.944 29.0041 7.944C28.0921 7.944 27.3561 8.24 26.7961 8.832C26.2361 9.408 25.9561 10.176 25.9561 11.136V18H22.9801V9.312C22.9801 8.032 22.9161 6.888 22.7881 5.88H25.5961L25.8121 7.872C26.2281 7.136 26.7881 6.568 27.4921 6.168C28.2121 5.768 29.0201 5.568 29.9161 5.568ZM48.9131 5.88V17.616C48.9131 19.504 48.3931 20.936 47.3531 21.912C46.3131 22.888 44.7851 23.376 42.7691 23.376C40.8971 23.376 39.2491 22.984 37.8251 22.2L38.3051 19.92C39.7771 20.688 41.2411 21.072 42.6971 21.072C44.8571 21.072 45.9371 20 45.9371 17.856V15.456C45.5691 16.112 45.0331 16.648 44.3291 17.064C43.6251 17.464 42.8331 17.664 41.9531 17.664C40.8971 17.664 39.9531 17.416 39.1211 16.92C38.3051 16.408 37.6651 15.696 37.2011 14.784C36.7531 13.856 36.5291 12.8 36.5291 11.616C36.5291 10.432 36.7531 9.384 37.2011 8.472C37.6651 7.544 38.3051 6.832 39.1211 6.336C39.9531 5.824 40.8971 5.568 41.9531 5.568C42.8491 5.568 43.6411 5.76 44.3291 6.144C45.0331 6.512 45.5691 7.032 45.9371 7.704V5.88H48.9131ZM42.7451 15.312C43.7371 15.312 44.5131 14.984 45.0731 14.328C45.6491 13.672 45.9371 12.768 45.9371 11.616C45.9371 10.464 45.6571 9.56 45.0971 8.904C44.5371 8.248 43.7531 7.92 42.7451 7.92C41.7531 7.92 40.9691 8.248 40.3931 8.904C39.8331 9.56 39.5531 10.464 39.5531 11.616C39.5531 12.768 39.8331 13.672 40.3931 14.328C40.9691 14.984 41.7531 15.312 42.7451 15.312ZM62.9542 5.88V18H60.0262V16.128C59.6422 16.8 59.1302 17.312 58.4902 17.664C57.8502 18.016 57.1142 18.192 56.2822 18.192C53.3222 18.192 51.8422 16.528 51.8422 13.2V5.88H54.8182V13.224C54.8182 14.104 54.9942 14.752 55.3462 15.168C55.7142 15.584 56.2742 15.792 57.0262 15.792C57.9062 15.792 58.6102 15.504 59.1382 14.928C59.6662 14.352 59.9302 13.584 59.9302 12.624V5.88H62.9542ZM65.9711 0.335999H68.9471V18H65.9711V0.335999ZM82.5969 12.096H74.2449C74.3089 13.392 74.6289 14.352 75.2049 14.976C75.7969 15.584 76.6689 15.888 77.8209 15.888C79.1489 15.888 80.3809 15.456 81.5169 14.592L82.3809 16.656C81.8049 17.12 81.0929 17.496 80.2449 17.784C79.4129 18.056 78.5649 18.192 77.7009 18.192C75.7169 18.192 74.1569 17.632 73.0209 16.512C71.8849 15.392 71.3169 13.856 71.3169 11.904C71.3169 10.672 71.5649 9.576 72.0609 8.616C72.5569 7.656 73.2529 6.912 74.1489 6.384C75.0449 5.84 76.0609 5.568 77.1969 5.568C78.8609 5.568 80.1729 6.112 81.1329 7.2C82.1089 8.272 82.5969 9.752 82.5969 11.64V12.096ZM77.2689 7.728C76.4689 7.728 75.8129 7.968 75.3009 8.448C74.8049 8.912 74.4849 9.592 74.3409 10.488H79.9809C79.8849 9.576 79.6049 8.888 79.1409 8.424C78.6929 7.96 78.0689 7.728 77.2689 7.728ZM87.9453 14.64V18H84.5853V14.64H87.9453Z" fill="white"/>
</svg>
